<?xml version="1.0" encoding="utf-8" ?>
<svg fill="#FAF7F2" xmlns="http://www.w3.org/2000/svg" xmlns:xlink="http://www.w3.org/1999/xlink" width="841" height="168">
	<path d="M112.091 40.287Q122.343 40.1891 132.594 40.325L132.548 131.677C125.736 131.561 118.888 131.739 112.073 131.784Q111.839 86.0357 112.091 40.287Z"/>
	<path d="M218.477 40.311C226.683 40.0886 234.92 40.2474 243.13 40.2795C243.134 40.3041 243.138 40.3285 243.141 40.3531C243.145 40.3941 243.147 40.4353 243.151 40.4762C243.188 40.7825 243.229 41.078 243.216 41.3876C243.125 43.4769 238.7 53.5336 237.259 54.8521C237.296 55.0117 237.307 55.1639 237.304 55.328C237.277 57.0107 208.784 125.369 206.484 130.376C206.28 130.819 205.904 131.24 205.561 131.582C202.229 131.982 198.598 131.73 195.232 131.722L176.086 131.658C176.505 129.703 142.633 50.5055 138.666 40.275Q151.04 40.1816 163.413 40.3489C165.907 47.0212 191.224 109.904 190.837 111.98Q191.552 111.341 192.077 110.537C194.513 106.815 198.08 95.4188 199.924 90.5863C206.074 74.4763 212.692 58.3935 218.305 42.0998C218.529 41.4499 218.622 40.9998 218.477 40.311Z"/>
	<path d="M644.063 40.4594C650.504 39.5908 657.767 40.2522 664.292 40.3348C664.306 40.3601 664.321 40.385 664.334 40.4108C664.356 40.4537 664.375 40.4981 664.398 40.5406C665.882 43.3127 665.188 49.1533 665.167 52.3432C665.089 63.672 663.403 96.6566 667.412 104.628C669.148 108.079 672.545 110.383 676.145 111.569C683.766 114.079 698.469 114.077 705.639 110.416C708.982 108.709 711.432 106.011 712.596 102.41C713.449 99.7718 713.671 97.0249 713.816 94.2724C714.08 89.2386 714.75 42.8701 713.443 40.3085Q723.539 40.1683 733.633 40.3753C733.866 40.7933 734.066 41.2523 734.164 41.7215C734.761 44.5783 735.056 58.6162 733.742 60.5868C733.856 60.7615 733.956 60.9347 734.04 61.1265C735.261 63.927 734.521 94.3699 734.012 98.987C733.584 102.875 732.791 106.767 731.374 110.421C728.077 118.926 721.054 125.267 712.809 128.883C699.653 134.654 680.638 134.412 667.323 129.198C644.629 120.311 644.545 101.076 644.533 80.1871L644.472 53.2654C644.496 49.8942 645.472 43.5946 644.108 40.556C644.093 40.5236 644.078 40.4916 644.063 40.4594Z"/>
	<path d="M433.841 40.4593C440.194 39.5185 447.517 40.2391 453.964 40.3004Q454.246 40.8285 454.389 41.4102C455.135 44.5371 454.911 70.882 454.52 75.0582C454.47 75.5911 454.24 76.0938 453.959 76.5436C469.916 76.8503 485.941 76.5333 501.904 76.499C502.048 76.246 502.155 75.9929 502.215 75.7063C502.995 71.9574 502.296 60.7891 502.3 56.3514C502.304 51.5143 502.807 46.2949 502.379 41.4961C502.339 41.0582 502.123 40.622 501.894 40.2542Q512.021 40.194 522.148 40.3138C522.191 40.3839 522.234 40.455 522.273 40.528C522.55 41.0489 522.726 41.7158 522.764 42.3051C523.286 50.5179 522.989 129.964 522.644 130.975C521.772 131.832 521.443 131.658 520.266 131.668Q511.098 131.601 501.931 131.7C502.484 130.321 502.861 97.8489 502.132 95.2973C496.134 94.7928 489.994 95.0393 483.977 95.0461L454.111 95.0548C454.176 95.193 454.236 95.3297 454.285 95.4747C455.152 98.0556 454.879 129.764 453.958 131.698L433.605 131.83C433.934 131.23 434.095 130.689 434.115 130.004C434.69 110.409 434.085 90.6098 434.096 70.994C434.098 65.7354 434.878 44.1089 433.841 40.4593Z"/>
	<path d="M779.172 39.2273C789.167 38.5585 800.439 39.2093 809.612 43.4255C816.506 46.5941 822.103 51.8532 824.744 59.06C826.004 62.4991 827.664 68.2728 826.037 71.7924L805.94 71.9069C806.498 70.9631 806.52 70.0141 806.508 68.944C806.478 66.2462 805.862 64.2327 803.886 62.3236C798.721 57.3339 788.731 57.3539 782.001 57.5203C777.222 57.6386 770.02 57.8666 766.501 61.6364C765.172 63.0595 764.575 64.8909 764.667 66.8226C764.787 69.3717 765.694 71.2869 767.897 72.657C771.302 74.7754 775.776 75.1222 779.652 75.7358C792.1 77.7065 811.703 78.8413 821.147 87.4188C825.817 91.6603 828.157 97.7183 828.43 103.938C828.722 110.562 826.628 116.69 822.133 121.592C814.199 130.242 802.019 132.573 790.799 133.05C784.886 133.176 778.767 132.817 772.95 131.719C761.675 129.589 748.476 122.663 746.032 110.248C745.494 107.514 745.79 102.531 744.213 100.268C744.193 100.239 744.172 100.21 744.151 100.181C750.908 100.436 757.698 100.045 764.466 100.268C766.242 102.824 765.105 106.737 767.194 109.583C769.139 112.234 773.586 113.231 776.671 113.719C784.217 114.912 799.597 115.801 805.867 111.152C807.15 110.201 808.141 108.957 808.365 107.343C808.639 105.37 807.805 102.503 806.609 100.936C804.863 96.3765 770.93 93.2982 764.631 91.6091C759.972 90.3601 755.31 88.3859 751.6 85.2429C746.988 81.3364 744.643 75.8385 744.148 69.8906C743.586 63.1318 745.284 56.8636 749.707 51.6533C756.994 43.0689 768.379 40.1111 779.172 39.2273Z"/>
	<path d="M249.006 40.4579C255.268 39.4606 266.278 40.2011 273.065 40.2024L326.51 40.2637C326.707 40.5291 326.864 40.8131 326.952 41.1341C327.587 43.4574 327.528 56.7724 326.338 58.7666C307.464 59.2645 288.469 58.9525 269.584 58.8061C269.789 59.129 269.989 59.5112 270.087 59.8833C270.744 62.3633 270.611 74.6254 269.587 76.5044C287.842 76.946 306.2 76.5423 324.468 76.5421C324.54 76.6649 324.541 76.6591 324.594 76.7721C324.616 76.8177 324.636 76.8642 324.657 76.9099C324.802 77.2166 324.938 77.5283 325.02 77.8586C325.585 80.1308 325.527 93.1929 324.479 94.8721L288.58 94.9284Q279.075 94.8667 269.57 94.9075C269.839 95.3508 270.041 95.8813 270.139 96.3896C270.533 98.442 270.758 111.746 269.645 113.349L326.287 113.412C326.497 113.816 326.675 114.252 326.777 114.697C327.341 117.157 327.345 129.67 326.141 131.581C316.648 131.976 307.088 131.756 297.586 131.754L249.031 131.702Q249.303 131.302 249.462 130.846C250.093 129.065 249.804 50.4656 249.537 42.5585C249.512 41.7949 249.335 41.1453 249.006 40.4579Z"/>
	<path d="M569.2 40.4595C575.16 39.4166 591.409 40.2078 598.304 40.3236C598.477 40.4859 598.64 40.6576 598.778 40.8511C600.67 43.5001 607.368 60.1633 609.131 64.159C618.323 85.0004 628.029 105.745 636.696 126.801C637.273 128.201 638.293 130.024 638.062 131.542C630.458 132.059 622.64 131.698 615.015 131.644C615.061 131.486 615.093 131.332 615.096 131.167C615.122 129.686 607.697 112.971 606.491 111.703L598.206 111.633L560.484 111.662C560.539 111.825 560.58 111.992 560.579 112.165C560.562 114.259 553.391 129.928 551.843 131.517C544.562 132.359 536.377 131.795 529.046 131.542C529.572 131.101 529.947 130.641 530.242 130.02C538.469 112.676 545.676 94.6169 553.355 77.0091L563.544 53.666C565.447 49.3217 567.64 44.9352 569.2 40.4595ZM582.895 59.3534C582.842 62.0996 570.363 91.4462 568.8 92.9656C568.722 93.0415 568.64 93.1124 568.557 93.1826L583.834 93.151L598.308 93.1799C598.341 92.6168 598.312 92.0362 598.122 91.5015C596.956 88.222 585.51 60.7381 584.515 59.4292L582.895 59.3534Z"/>
	<path d="M16.2064 40.2827C27.3729 40.1299 38.557 40.2317 49.7254 40.2271C58.6802 40.2235 68.0105 39.6833 76.8676 41.1745C81.8826 42.0188 86.8539 43.6374 91.1209 46.4559C96.4316 49.9639 99.8968 55.0404 101.15 61.2871C102.498 68.0059 102.108 76.257 98.1956 82.1038C92.8321 90.1193 83.6901 91.8974 74.88 93.6245C78.4951 94.9501 81.5464 96.1161 84.5116 98.6372C91.3275 104.432 99.3016 123.04 104.141 131.616C101.503 131.747 98.836 131.712 96.1935 131.753Q88.1931 131.798 80.1943 131.632C78.3604 126.833 67.4087 106.048 64.1322 102.885C57.591 96.5702 45.059 98.5049 36.6196 98.6546C36.4472 109.647 36.5291 120.655 36.4968 131.649Q26.2945 131.769 16.0915 131.741L16.2064 40.2827ZM36.6394 58.7877C36.611 66.9077 36.4141 75.0726 36.6307 83.1875Q46.3557 83.1263 56.0808 83.1772C61.339 83.2005 66.9844 83.5911 72.1581 82.5728C74.1287 82.185 75.6934 81.4901 77.3642 80.3856C80.2935 76.7594 80.8716 72.5254 80.3775 67.9632C80.1053 65.4498 78.9236 63.1405 76.9274 61.5678C75.0618 60.0981 72.7588 59.3585 70.4435 58.9843C65.7745 58.2296 60.6275 58.6299 55.8942 58.649C49.4887 58.6748 43.0388 58.5608 36.6394 58.7877Z"/>
	<path d="M337.88 40.4591L338.026 40.4355C343.737 39.5488 350.495 40.208 356.288 40.2038C369.007 40.1946 387.257 39.1277 399.164 41.1942C404.537 42.1266 409.745 43.8375 414.169 47.1044C419.523 51.058 422.759 56.8965 423.737 63.4446C424.726 70.0733 423.719 77.407 419.637 82.8774C414.038 90.3819 405.102 92.2985 396.363 93.5711C400.174 94.4575 403.965 96.2655 406.928 98.8395C408.73 100.405 410.157 102.553 411.433 104.552C413.687 108.085 425.657 129.106 425.837 131.76C422.793 131.811 419.746 131.795 416.702 131.812Q409.265 131.885 401.831 131.654C401.854 131.475 401.87 131.296 401.867 131.115C401.826 129.087 391.224 109.99 389.583 107.315C388.644 105.784 387.562 104.286 386.278 103.026C379.813 96.6825 366.492 98.6037 358.035 98.6794Q358.222 98.9919 358.364 99.3268C359.234 101.381 358.892 129.323 357.973 131.699C353.647 131.083 342.538 131.721 337.665 131.696C337.979 131.091 338.153 130.513 338.174 129.828C338.393 122.698 338.156 115.473 338.16 108.334L338.123 63.0814C338.108 58.7146 338.868 43.7546 337.88 40.4591ZM358.221 58.9434C358.899 60.533 359.137 80.7287 358.506 82.3277Q358.352 82.7172 358.147 83.0822C364.924 83.1041 394.72 84.4799 398.64 80.8013C398.789 80.6615 398.875 80.4937 398.943 80.303C400.703 79.1725 401.653 77.544 402.102 75.5141C402.913 71.8502 402.897 66.7206 400.827 63.4923C399.323 61.1459 396.818 59.8938 394.156 59.3339C389.449 58.344 363.668 58.3254 358.221 58.9434Z"/>
</svg>
